<svg id="Layer_1" data-name="Layer 1" xmlns="http://www.w3.org/2000/svg" viewBox="0 0 1240.74 630.62"><defs><style>.cls-1{fill:#fdb716;}.cls-2{fill:none;stroke:#ffffff;stroke-miterlimit:10;stroke-width:15px;}.cls-3{fill:#ffffff;}</style></defs><path class="cls-1" d="M895.51,1029v0l-.19-.07-.17-.07-.19-.1-.2-.1-.27-.1-.38-.2-.71-.32L783.74,977.42,471.3,833.07A307.39,307.39,0,0,1,545.36,764L797.07,954.51l97.18,73.58.29.22.22.18.17.12.12.1.15.1.14.12Z" transform="translate(-399.88 -708.69)"/><ellipse class="cls-2" cx="311.11" cy="315.31" rx="303.61" ry="307.81"/><ellipse class="cls-3" cx="494.5" cy="321.46" rx="121.45" ry="123.12"/><line class="cls-2" x1="495.63" y1="321.46" x2="7.5" y2="321.46"/><polyline class="cls-2" points="27.19 424.57 375.84 347.84 491.04 322.48 493.35 321.99 494.15 321.79 494.59 321.69 494.9 321.64 495.15 321.57 495.37 321.52 495.56 321.5 495.63 321.47"/><polyline class="cls-2" points="79.12 513.91 384.17 372.99 493.45 322.48 494.15 322.16 494.52 321.99 494.54 321.99 494.81 321.86 495 321.77 495.2 321.67 495.37 321.59 495.56 321.52 495.56 321.5 495.63 321.47"/><polyline class="cls-2" points="154.98 579.34 397.6 395.69 494.3 322.48 494.59 322.26 494.81 322.09 494.95 321.99 494.98 321.99 495.1 321.86 495.25 321.77 495.39 321.64 495.56 321.54 495.56 321.52 495.63 321.47"/><polyline class="cls-2" points="243.54 615.46 415.48 414.95 494.76 322.48 494.9 322.31 495 322.18 495.03 322.18 495.1 322.09 495.2 321.99 495.29 321.86 495.42 321.72 495.56 321.54 495.63 321.47"/><polyline class="cls-2" points="332.82 622.36 436.95 429.92 495.1 322.48 495.15 322.38 495.2 322.28 495.25 322.18 495.29 322.09 495.37 321.99 495.44 321.81 495.56 321.59 495.63 321.47"/><polyline class="cls-2" points="412.64 605.49 461.05 439.87 495.34 322.48 495.37 322.43 495.37 322.36 495.39 322.31 495.42 322.23 495.44 322.13 495.49 321.99 495.58 321.67 495.58 321.64 495.63 321.47"/><polyline class="cls-2" points="477.2 573.04 486.62 444.32 495.56 322.48 495.56 322.45 495.56 322.43 495.56 322.41 495.56 322.36 495.58 322.28 495.58 322.26 495.58 322.06 495.58 321.99 495.63 321.47"/><line class="cls-2" x1="495.63" y1="322.49" x2="7.5" y2="322.49"/><polyline class="cls-2" points="22.86 218.43 375.65 296.08 490.99 321.47 493.35 321.98 494.14 322.16 494.15 322.16 494.59 322.25 494.89 322.33 495.15 322.38 495.37 322.43 495.56 322.48 495.63 322.49"/><polyline class="cls-2" points="71.35 126.44 383.78 270.79 493.45 321.47 494.15 321.79 494.54 321.99 494.81 322.09 495 322.18 495.2 322.28 495.37 322.36 495.56 322.43 495.56 322.45 495.63 322.48"/><polyline class="cls-2" points="145.41 57.35 397.12 247.89 494.3 321.47 494.59 321.69 494.81 321.86 494.98 321.99 495.1 322.09 495.25 322.18 495.39 322.31 495.56 322.41 495.56 322.43 495.63 322.48"/><polyline class="cls-2" points="234.11 17.5 414.97 228.41 494.76 321.47 494.9 321.64 495 321.77 495.1 321.86 495.2 321.99 495.29 322.09 495.42 322.23 495.56 322.41 495.63 322.48"/><polyline class="cls-2" points="325.37 7.85 436.51 213.25 495.1 321.47 495.15 321.57 495.2 321.67 495.25 321.77 495.29 321.86 495.37 321.99 495.44 322.13 495.56 322.36 495.63 322.48"/><polyline class="cls-2" points="408.31 23.64 460.78 203.17 495.34 321.47 495.37 321.52 495.37 321.59 495.39 321.64 495.42 321.72 495.44 321.81 495.49 321.99 495.58 322.28 495.63 322.48"/><polyline class="cls-2" points="476.18 56.93 486.55 198.62 495.56 321.47 495.56 321.5 495.56 321.52 495.56 321.54 495.56 321.59 495.58 321.67 495.58 321.99 495.63 322.48"/><path class="cls-3" d="M1181.38,913.21a89.22,89.22,0,0,1,31.71,13.43A57.35,57.35,0,0,1,1234.48,952a81.12,81.12,0,0,1,6.63,32.27,82.64,82.64,0,0,1-6.08,31.89,73,73,0,0,1-17.88,25.75q-11.81,11-29.69,17t-40,6a401.87,401.87,0,0,1-40.19-1.86v90.28a53.65,53.65,0,0,1-15.12,1.86,54.57,54.57,0,0,1-14.75-1.86V917.87q29.49-8.21,69.69-8.21A166.74,166.74,0,0,1,1181.38,913.21Zm13.09,110.8q15.3-14.37,15.3-39.73,0-22.39-16-34.89t-47-12.49a260.73,260.73,0,0,0-39.45,3v96.63a377.18,377.18,0,0,0,39.82,1.86Q1179.16,1038.37,1194.47,1024Z" transform="translate(-399.88 -708.69)"/><path class="cls-3" d="M1313.6,1155.71a100.67,100.67,0,0,1-27.66-10.82,85.38,85.38,0,0,1-20.65-16.23q4.07-14.17,18.44-22.76a83.77,83.77,0,0,0,26.37,18.47,81.09,81.09,0,0,0,33.73,6.9q16.59,0,29.5-5.23t18.81-15.48a43.81,43.81,0,0,0,5.9-22.2q0-17.52-13.28-27.79t-41.29-17q-37.62-9-54.39-25.75t-16.78-44.77q0-28.35,21-46.82t54.94-18.46q44.61,0,75.59,23.5-.37,6.35-5.16,13.8T1408,955.55a112.12,112.12,0,0,0-27.1-14.55q-14.19-5.22-32.63-5.22a69,69,0,0,0-21,3.54A38.13,38.13,0,0,0,1309,951.63a30.11,30.11,0,0,0-7.19,19.59q0,14.55,9.77,24.06t38.16,16.6q43.89,11.21,61,29.29t17.14,46.45a83.5,83.5,0,0,1-3.87,24.81,57.91,57.91,0,0,1-13.83,22.94q-9.95,10.45-26.36,17.16t-40,6.72A132.24,132.24,0,0,1,1313.6,1155.71Z" transform="translate(-399.88 -708.69)"/><path class="cls-3" d="M1638.78,941.37h-75.22v212.28a71,71,0,0,1-15.12,1.87,69.57,69.57,0,0,1-14.75-1.87V941.37H1458.1a52.67,52.67,0,0,1,0-27.6h180.68a52.67,52.67,0,0,1,0,27.6Z" transform="translate(-399.88 -708.69)"/></svg>